<svg width="488" height="426" viewBox="0 0 488 426" fill="none" xmlns="http://www.w3.org/2000/svg">
  <defs>
    <radialGradient id="bgGradient" cx="0" cy="0" r="1" gradientUnits="userSpaceOnUse" gradientTransform="translate(90 40) rotate(30) scale(560 430)">
      <stop stop-color="#0E2331"/>
      <stop offset="1" stop-color="#050C14"/>
    </radialGradient>
    <filter id="cardShadow" x="78" y="56" width="332" height="300" filterUnits="userSpaceOnUse" color-interpolation-filters="sRGB">
      <feOffset dy="18"/>
      <feGaussianBlur stdDeviation="24"/>
      <feColorMatrix type="matrix" values="0 0 0 0 0.1 0 0 0 0 0.23 0 0 0 0 0.34 0 0 0 0.26 0"/>
      <feBlend in="SourceGraphic"/>
    </filter>
    <filter id="sheetShadow" x="52" y="194" width="240" height="240" filterUnits="userSpaceOnUse" color-interpolation-filters="sRGB">
      <feOffset dy="16"/>
      <feGaussianBlur stdDeviation="20"/>
      <feColorMatrix type="matrix" values="0 0 0 0 0.12 0 0 0 0 0.44 0 0 0 0 0.48 0 0 0 0.28 0"/>
      <feBlend in="SourceGraphic"/>
    </filter>
    <filter id="badgeShadow" x="288" y="250" width="174" height="118" filterUnits="userSpaceOnUse" color-interpolation-filters="sRGB">
      <feOffset dy="12"/>
      <feGaussianBlur stdDeviation="18"/>
      <feColorMatrix type="matrix" values="0 0 0 0 0.05 0 0 0 0 0.3 0 0 0 0 0.38 0 0 0 0.34 0"/>
      <feBlend in="SourceGraphic"/>
    </filter>
    <linearGradient id="arrowStroke" x1="0" y1="0" x2="1" y2="0" gradientUnits="userSpaceOnUse">
      <stop stop-color="#19B57E"/>
      <stop offset="1" stop-color="#16A4C3"/>
    </linearGradient>
    <linearGradient id="excelFace" x1="0" y1="0" x2="1" y2="1" gradientUnits="objectBoundingBox">
      <stop stop-color="#4CE1B1"/>
      <stop offset="1" stop-color="#0C6A45"/>
    </linearGradient>
  </defs>

  <rect width="488" height="426" rx="40" fill="url(#bgGradient)"/>

  <!-- Main wizard card -->
  <g filter="url(#cardShadow)">
    <rect x="128" y="88" width="232" height="224" rx="30" fill="#FFFFFF"/>
  </g>
  <rect x="128" y="88" width="232" height="224" rx="30" fill="#FFFFFF"/>
  <rect x="128" y="88" width="232" height="60" rx="30" fill="#F5F6F8"/>

  <!-- Window dots -->
  <circle cx="150" cy="118" r="5.3" fill="#FF8A7A"/>
  <circle cx="168" cy="118" r="5.3" fill="#FACC15"/>
  <circle cx="186" cy="118" r="5.3" fill="#34D399"/>

  <text x="244" y="126" text-anchor="middle" fill="#111827" font-family="Inter, Arial, sans-serif" font-size="22" font-weight="600">
    Importa i dati
  </text>

  <!-- Stepper -->
  <g transform="translate(148 148)">
    <line x1="28" y1="26" x2="206" y2="26" stroke="#E5E7EB" stroke-width="2" stroke-linecap="round"/>
    <line x1="28" y1="26" x2="98" y2="26" stroke="#21C291" stroke-width="2" stroke-linecap="round"/>
    <g>
      <g transform="translate(28 0)">
        <circle cx="0" cy="26" r="16" fill="#21C291"/>
        <text x="0" y="32" text-anchor="middle" fill="#FFFFFF" font-family="Inter, Arial, sans-serif" font-size="12" font-weight="600">1</text>
        <text x="0" y="56" text-anchor="middle" fill="#0F766E" font-family="Inter, Arial, sans-serif" font-size="11" font-weight="600" letter-spacing="0.18em">FILE</text>
      </g>
      <g transform="translate(88 0)">
        <circle cx="0" cy="26" r="16" fill="#FFFFFF" stroke="#CBD5E1" stroke-width="2"/>
        <text x="0" y="32" text-anchor="middle" fill="#6B7280" font-family="Inter, Arial, sans-serif" font-size="12" font-weight="600">2</text>
        <text x="0" y="56" text-anchor="middle" fill="#9CA3AF" font-family="Inter, Arial, sans-serif" font-size="11" letter-spacing="0.18em">MAPPATURA</text>
      </g>
      <g transform="translate(150 0)">
        <circle cx="0" cy="26" r="16" fill="#FFFFFF" stroke="#CBD5E1" stroke-width="2"/>
        <text x="0" y="32" text-anchor="middle" fill="#6B7280" font-family="Inter, Arial, sans-serif" font-size="12" font-weight="600">3</text>
        <text x="0" y="56" text-anchor="middle" fill="#9CA3AF" font-family="Inter, Arial, sans-serif" font-size="11" letter-spacing="0.18em">REVISIONE</text>
      </g>
      <g transform="translate(212 0)">
        <circle cx="0" cy="26" r="16" fill="#FFFFFF" stroke="#CBD5E1" stroke-width="2"/>
        <text x="0" y="32" text-anchor="middle" fill="#6B7280" font-family="Inter, Arial, sans-serif" font-size="12" font-weight="600">4</text>
        <text x="0" y="56" text-anchor="middle" fill="#9CA3AF" font-family="Inter, Arial, sans-serif" font-size="11" letter-spacing="0.18em">COMPLETATO</text>
      </g>
    </g>
  </g>

  <!-- Dropzone -->
  <g transform="translate(178 210)">
    <rect width="156" height="100" rx="20" fill="#FFFFFF" stroke="#CFFAEA" stroke-width="2" stroke-dasharray="7 8"/>
    <circle cx="78" cy="44" r="24" fill="#ECFDF5"/>
    <rect x="68" y="62" width="20" height="24" rx="4" fill="#F7F9FB" stroke="#D6DEE5" stroke-width="1.4"/>
    <path d="M78 38V54" stroke="#0EB489" stroke-width="2" stroke-linecap="round"/>
    <path d="M72 44L78 38L84 44" stroke="#0EB489" stroke-width="2" stroke-linecap="round" stroke-linejoin="round"/>
    <text x="78" y="88" text-anchor="middle" fill="#111827" font-family="Inter, Arial, sans-serif" font-size="16" font-weight="600">Carica il file</text>
    <text x="78" y="104" text-anchor="middle" fill="#9CA3AF" font-family="Inter, Arial, sans-serif" font-size="12">Excel o CSV fino a 50MB</text>
  </g>

  <!-- Floating document -->
  <g transform="translate(96 232) rotate(-17)" filter="url(#sheetShadow)">
    <rect width="184" height="226" rx="26" fill="#FFFFFF"/>
    <rect width="184" height="58" rx="26" fill="#00B894"/>
    <text x="92" y="36" text-anchor="middle" fill="#FFFFFF" font-family="Inter, Arial, sans-serif" font-size="12" font-weight="700" letter-spacing="0.34em">
      NOMEEMAILUNITÀ
    </text>
    <g>
      <rect x="26" y="78" width="132" height="44" rx="18" fill="#ECFDF5"/>
      <rect x="26" y="134" width="132" height="44" rx="18" fill="#ECFDF5"/>
      <rect x="26" y="190" width="132" height="44" rx="18" fill="#ECFDF5"/>
    </g>
    <text x="44" y="104" fill="#0F172A" font-family="Inter, Arial, sans-serif" font-size="13" font-weight="600">Mario Rossi</text>
    <text x="44" y="160" fill="#0F172A" font-family="Inter, Arial, sans-serif" font-size="13" font-weight="600">Luisa Bianchi</text>
    <text x="44" y="216" fill="#0F172A" font-family="Inter, Arial, sans-serif" font-size="13" font-weight="600">Paolo Verdi</text>
    <text x="138" y="122" text-anchor="middle" fill="#0EA072" font-family="Inter, Arial, sans-serif" font-size="11" letter-spacing="0.32em">A12</text>
    <text x="138" y="178" text-anchor="middle" fill="#0EA072" font-family="Inter, Arial, sans-serif" font-size="11" letter-spacing="0.32em">B07</text>
    <text x="138" y="234" text-anchor="middle" fill="#0EA072" font-family="Inter, Arial, sans-serif" font-size="11" letter-spacing="0.32em">C03</text>
    <rect y="226" width="184" height="42" rx="20" fill="#0F172A"/>
    <text x="30" y="252" fill="#F9FAFB" font-family="Inter, Arial, sans-serif" font-size="12">File Excel</text>
    <text x="148" y="252" text-anchor="middle" fill="#34D399" font-family="Inter, Arial, sans-serif" font-size="12" letter-spacing="0.44em">.XLSX</text>
  </g>

  <!-- Excel badge -->
  <g transform="translate(114 346)">
    <rect width="74" height="94" rx="26" fill="url(#excelFace)"/>
    <rect x="6" y="10" width="62" height="62" rx="18" fill="#12B67E"/>
    <text x="37" y="54" text-anchor="middle" fill="#ECFDF5" font-family="Inter, Arial, sans-serif" font-size="32" font-weight="700">X</text>
  </g>

  <!-- Arrow -->
  <g transform="translate(242 322)">
    <rect y="28" width="128" height="10" rx="5" fill="#16BC88"/>
    <path d="M128 12L158 34L128 56Z" fill="url(#arrowStroke)"/>
  </g>

  <!-- CondoChiaro badge -->
  <g filter="url(#badgeShadow)" transform="translate(326 286)">
    <rect width="148" height="76" rx="24" fill="#041F2E"/>
    <rect x="18" y="20" width="46" height="46" rx="14" fill="#0C394B"/>
    <image x="22" y="24" width="34" height="34" href="condochiaro-logo.png"/>
    <rect x="74" y="24" width="58" height="6" rx="3" fill="#38E4C0"/>
    <circle cx="144" cy="27" r="8" fill="#38E4C0"/>
    <circle cx="144" cy="27" r="3.2" fill="#063042"/>
    <circle cx="134" cy="48" r="10" fill="#0B4154"/>
    <circle cx="134" cy="48" r="4.8" fill="#38E4C0"/>
    <text x="74" y="48" fill="#F8FAFC" font-family="Inter, Arial, sans-serif" font-size="16" font-weight="600">CondoChiaro</text>
    <text x="74" y="64" fill="#8FE2DB" font-family="Inter, Arial, sans-serif" font-size="11">Dashboard pronta in 2 minuti</text>
  </g>
</svg>
